<svg width="600" height="94" viewBox="0 0 600 94" fill="none" xmlns="http://www.w3.org/2000/svg">
<path fill-rule="evenodd" clip-rule="evenodd" d="M0.790783 91.4673C1.31797 91.9945 2.02089 92.2581 2.89954 92.2581H31.6314C40.6814 92.2581 47.7985 90.9841 52.9825 88.436C58.1665 85.8 61.8569 81.8461 64.0535 76.5742C66.2501 71.3023 67.4363 64.6246 67.612 56.541C67.6999 52.5871 67.7438 49.1165 67.7438 46.1291C67.7438 43.0538 67.6999 39.5392 67.612 35.5853C67.5242 27.941 66.338 21.483 64.0535 16.2111C61.8569 10.8513 58.1226 6.80953 52.8507 4.08572C47.5788 1.36191 40.286 0 30.9724 0H2.89954C2.02089 0 1.31797 0.263596 0.790783 0.790789C0.263594 1.31798 0 2.06483 0 3.03134V89.3586C0 90.2372 0.263594 90.9401 0.790783 91.4673ZM30.9724 84.3503H8.30323V7.90784H30.3134C40.8572 7.90784 48.2817 10.2363 52.5871 14.8931C56.8925 19.4621 59.1331 26.5791 59.3088 36.2443C59.3967 38.8802 59.4406 41.1647 59.4406 43.0977V49.0286C59.4406 50.9616 59.3967 53.2461 59.3088 55.8821C59.2209 62.7355 58.2544 68.271 56.4092 72.4885C54.6519 76.6182 51.7085 79.6495 47.5788 81.5825C43.537 83.4277 38.0016 84.3503 30.9724 84.3503Z" fill="white"/>
<path d="M89.9856 91.4673C90.5128 91.9945 91.2157 92.2581 92.0944 92.2581H144.55C145.516 92.2581 146.263 91.9945 146.79 91.4673C147.317 90.9401 147.581 90.2372 147.581 89.3586V87.3816C147.581 86.4151 147.317 85.6683 146.79 85.1411C146.263 84.6139 145.516 84.3503 144.55 84.3503H97.4981V49.424H140.596C141.562 49.424 142.309 49.1604 142.836 48.6332C143.364 48.106 143.627 47.4031 143.627 46.5244V44.5475C143.627 43.581 143.364 42.8341 142.836 42.3069C142.309 41.7798 141.562 41.5161 140.596 41.5161H97.4981V7.90784H143.495C144.462 7.90784 145.209 7.64424 145.736 7.11706C146.263 6.58987 146.527 5.88695 146.527 5.0083V3.03134C146.527 2.06483 146.263 1.31798 145.736 0.790789C145.209 0.263596 144.462 0 143.495 0H92.0944C91.2157 0 90.5128 0.263596 89.9856 0.790789C89.4584 1.31798 89.1948 2.06483 89.1948 3.03134V89.3586C89.1948 90.2372 89.4584 90.9401 89.9856 91.4673Z" fill="white"/>
<path d="M193.714 92.2581C192.572 92.2581 191.649 91.9945 190.946 91.4673C190.244 90.9401 189.672 90.1494 189.233 89.095L158.656 4.08572C158.48 3.55853 158.393 3.07527 158.393 2.63595C158.393 1.93303 158.656 1.31798 159.183 0.790789C159.711 0.263596 160.326 0 161.028 0H163.796C164.675 0 165.334 0.263596 165.773 0.790789C166.3 1.23011 166.608 1.6255 166.696 1.97696L195.559 82.6369L224.423 1.97696C224.599 1.6255 224.906 1.23011 225.346 0.790789C225.785 0.263596 226.444 0 227.323 0H230.09C230.793 0 231.408 0.263596 231.935 0.790789C232.463 1.31798 232.726 1.93303 232.726 2.63595C232.726 3.07527 232.638 3.55853 232.463 4.08572L201.886 89.095C201.534 90.1494 201.007 90.9401 200.304 91.4673C199.601 91.9945 198.635 92.2581 197.405 92.2581H193.714Z" fill="white"/>
<path d="M293.641 91.9945C297.419 93.0489 301.461 93.5761 305.767 93.5761C312.708 93.5761 318.507 92.1263 323.164 89.2268C327.909 86.2394 331.511 82.1097 333.971 76.8378C336.431 71.5659 337.662 65.5033 337.662 58.6498V3.03134C337.662 2.06483 337.398 1.31798 336.871 0.790789C336.344 0.263596 335.597 0 334.63 0H280.725C279.846 0 279.144 0.263596 278.616 0.790789C278.089 1.31798 277.826 2.0209 277.826 2.89954V5.0083C277.826 5.88695 278.089 6.58987 278.616 7.11706C279.144 7.64424 279.846 7.90784 280.725 7.90784H329.358V58.518C329.358 66.5137 327.337 73.0596 323.296 78.1558C319.342 83.1641 313.499 85.6683 305.767 85.6683C301.725 85.6683 297.947 85.0532 294.432 83.8231C291.005 82.5051 288.15 80.4403 285.865 77.6286C283.669 74.8169 282.395 71.1266 282.043 66.5576C281.955 65.7669 281.648 65.1079 281.121 64.5807C280.681 64.0535 280.022 63.7899 279.144 63.7899H276.508C275.629 63.7899 274.926 64.0974 274.399 64.7125C273.96 65.2397 273.74 65.8987 273.74 66.6894C273.916 71.3463 274.838 75.3881 276.508 78.8148C278.265 82.1536 280.593 84.9214 283.493 87.118C286.48 89.3146 289.863 90.9401 293.641 91.9945Z" fill="white"/>
<path d="M364.57 92.2581C363.691 92.2581 362.988 91.9945 362.461 91.4673C361.934 90.9401 361.67 90.2372 361.67 89.3586V3.03134C361.67 2.06483 361.934 1.31798 362.461 0.790789C362.988 0.263596 363.691 0 364.57 0H366.942C367.909 0 368.656 0.263596 369.183 0.790789C369.71 1.31798 369.974 2.06483 369.974 3.03134V41.5161H420.847V3.03134C420.847 2.06483 421.111 1.31798 421.638 0.790789C422.165 0.263596 422.868 0 423.747 0H426.119C427.086 0 427.833 0.263596 428.36 0.790789C428.887 1.31798 429.151 2.06483 429.151 3.03134V89.3586C429.151 90.2372 428.887 90.9401 428.36 91.4673C427.833 91.9945 427.086 92.2581 426.119 92.2581H423.747C422.868 92.2581 422.165 91.9945 421.638 91.4673C421.111 90.9401 420.847 90.2372 420.847 89.3586V49.424H369.974V89.3586C369.974 90.2372 369.71 90.9401 369.183 91.4673C368.656 91.9945 367.909 92.2581 366.942 92.2581H364.57Z" fill="white"/>
<path d="M535.419 91.4673C535.947 91.9945 536.649 92.2581 537.528 92.2581H539.9C540.867 92.2581 541.614 91.9945 542.141 91.4673C542.668 90.9401 542.932 90.2372 542.932 89.3586V16.6065L591.433 90.6765C591.609 90.8523 591.872 91.1598 592.224 91.5991C592.663 92.0384 593.322 92.2581 594.201 92.2581H597.1C597.979 92.2581 598.682 91.9945 599.209 91.4673C599.736 90.8523 600 90.1054 600 89.2268V3.03134C600 2.06483 599.736 1.31798 599.209 0.790789C598.682 0.263596 597.935 0 596.969 0H594.596C593.718 0 593.015 0.263596 592.488 0.790789C591.96 1.31798 591.697 2.06483 591.697 3.03134V75.9153L543.064 1.58157C542.976 1.40584 542.712 1.09831 542.273 0.658986C541.833 0.219662 541.174 0 540.296 0H537.528C536.649 0 535.947 0.263596 535.419 0.790789C534.892 1.31798 534.629 2.06483 534.629 3.03134V89.3586C534.629 90.2372 534.892 90.9401 535.419 91.4673Z" fill="white"/>
<path fill-rule="evenodd" clip-rule="evenodd" d="M477.838 0.227151C487.702 -0.887635 497.558 2.23376 504.892 8.78793C512.235 15.3498 516.444 24.7563 516.444 34.5971C516.444 44.5533 512.146 54.029 504.65 60.5947C499.864 64.7924 497.223 70.251 497.223 75.9634V78.0738C497.223 85.8965 490.861 92.2585 483.039 92.2585H480.659C472.836 92.2585 466.475 85.8965 466.475 78.0738V77.4549C466.475 71.0506 463.565 64.8194 458.279 59.9028C450.018 52.2107 446.105 41.3358 447.542 30.0688C449.522 14.5387 462.261 1.98774 477.838 0.227151ZM480.659 84.5703H483.039C486.618 84.5703 489.539 81.6565 489.539 78.0738V76.8821H474.155C474.159 77.0705 474.163 77.2627 474.163 77.4549V78.0738C474.163 81.6565 477.077 84.5703 480.659 84.5703ZM490.45 69.1939C491.903 63.8084 495.059 58.7803 499.584 54.8132C505.415 49.7044 508.76 42.3353 508.76 34.5971C508.76 26.9436 505.48 19.6283 499.768 14.5233C494.775 10.0603 488.517 7.68852 481.885 7.68852C480.832 7.68852 479.771 7.75003 478.703 7.8692C466.605 9.23769 456.707 18.9825 455.173 31.0452C454.05 39.8251 457.095 48.2936 463.518 54.275C468.131 58.565 471.353 63.693 472.967 69.1939H490.45Z" fill="#ff9700"/>
</svg>
