<svg width="70" height="93" viewBox="0 0 70 93" fill="none" xmlns="http://www.w3.org/2000/svg">
<path fill-rule="evenodd" clip-rule="evenodd" d="M30.5875 0.221889C40.4514 -0.892897 50.3076 2.2285 57.6422 8.78267C64.9844 15.3445 69.1937 24.751 69.1937 34.5919C69.1937 44.5481 64.896 54.0237 57.4 60.5894C52.6141 64.7872 49.9732 70.2458 49.9732 75.9581V78.0685C49.9732 85.8912 43.6112 92.2532 35.7885 92.2532H33.409C25.5863 92.2532 19.2243 85.8912 19.2243 78.0685V77.4496C19.2243 71.0453 16.3144 64.8141 11.0287 59.8975C2.76781 52.2055 -1.14549 41.3306 0.292176 30.0635C2.27192 14.5334 15.0112 1.98248 30.5875 0.221889ZM33.409 84.565H35.7885C39.3674 84.565 42.2888 81.6512 42.2888 78.0685V76.8768H26.9048C26.9087 77.0652 26.9125 77.2574 26.9125 77.4496V78.0685C26.9125 81.6512 29.8263 84.565 33.409 84.565ZM43.1999 69.1887C44.653 63.8031 47.809 58.775 52.3335 54.8079C58.165 49.6991 61.5093 42.33 61.5093 34.5919C61.5093 26.9383 58.2303 19.623 52.518 14.5181C47.5245 10.0551 41.2663 7.68326 34.6353 7.68326C33.582 7.68326 32.521 7.74477 31.4524 7.86393C19.355 9.23243 9.45652 18.9772 7.92273 31.0399C6.80025 39.8198 9.84475 48.2884 16.2682 54.2698C20.8811 58.5598 24.1025 63.6878 25.717 69.1887H43.1999Z" fill="white"/>
</svg>
