<svg width="32" height="32" viewBox="0 0 32 32" fill="none" xmlns="http://www.w3.org/2000/svg">
<g id="Github">
<g id="Vector">
<path fill-rule="evenodd" clip-rule="evenodd" d="M16.0289 0.119965C7.20981 0.119965 0.0584717 7.3919 0.0584717 16.363C0.0584717 23.5397 4.63447 29.6284 10.98 31.7762C11.7781 31.9266 12.0712 31.4239 12.0712 30.9948C12.0712 30.6075 12.0564 29.3279 12.0495 27.9707C7.6065 28.9533 6.66898 26.0542 6.66898 26.0542C5.9425 24.1767 4.89576 23.6774 4.89576 23.6774C3.44677 22.6693 5.00498 22.69 5.00498 22.69C6.60869 22.8043 7.45312 24.3639 7.45312 24.3639C8.87751 26.8471 11.1892 26.1292 12.1005 25.7142C12.2439 24.6646 12.6577 23.9475 13.1145 23.5421C9.56723 23.1314 5.83831 21.7386 5.83831 15.5146C5.83831 13.7412 6.46217 12.2922 7.48379 11.1547C7.31798 10.7453 6.77133 9.09348 7.6385 6.85609C7.6385 6.85609 8.9796 6.41953 12.0315 8.52109C13.3054 8.16119 14.6716 7.9807 16.0289 7.97452C17.3861 7.9807 18.7533 8.16119 20.0296 8.52109C23.0778 6.41953 24.4171 6.85609 24.4171 6.85609C25.2864 9.09348 24.7395 10.7453 24.5736 11.1547C25.5976 12.2922 26.2173 13.7412 26.2173 15.5146C26.2173 21.7534 22.4812 23.1271 18.925 23.5292C19.4978 24.0333 20.0082 25.0218 20.0082 26.5373C20.0082 28.7104 19.9897 30.4596 19.9897 30.9948C19.9897 31.4271 20.2772 31.9336 21.0867 31.7741C27.4288 29.6238 31.999 23.5373 31.999 16.363C31.999 7.3919 24.8487 0.119965 16.0289 0.119965Z" fill="white"/>
<path fill-rule="evenodd" clip-rule="evenodd" d="M6.10726 23.4415C6.07209 23.5225 5.94726 23.5464 5.83355 23.491C5.71771 23.438 5.65265 23.328 5.69021 23.2471C5.72459 23.1639 5.84968 23.1411 5.96525 23.1962C6.08135 23.2495 6.14746 23.3606 6.10726 23.4415Z" fill="white"/>
<path fill-rule="evenodd" clip-rule="evenodd" d="M6.75414 24.1753C6.67798 24.2471 6.52908 24.2138 6.42806 24.1003C6.3236 23.987 6.30403 23.8356 6.38125 23.7627C6.45979 23.6909 6.60419 23.7245 6.70892 23.8377C6.81338 23.9523 6.83374 24.1027 6.75414 24.1753Z" fill="white"/>
<path fill-rule="evenodd" clip-rule="evenodd" d="M7.38383 25.1108C7.28598 25.18 7.12598 25.1151 7.02707 24.9707C6.92921 24.8263 6.92921 24.653 7.02918 24.5836C7.12836 24.5142 7.28598 24.5766 7.38621 24.72C7.48379 24.8666 7.48379 25.0401 7.38383 25.1108Z" fill="white"/>
<path fill-rule="evenodd" clip-rule="evenodd" d="M8.2465 26.0146C8.15897 26.1128 7.97252 26.0864 7.83606 25.9525C7.69642 25.8215 7.65755 25.6356 7.74535 25.5374C7.83394 25.439 8.02145 25.4667 8.15897 25.5996C8.29755 25.7303 8.33986 25.9175 8.2465 26.0146Z" fill="white"/>
<path fill-rule="evenodd" clip-rule="evenodd" d="M9.43659 26.5394C9.39798 26.6666 9.2184 26.7245 9.03751 26.6704C8.85688 26.6147 8.73867 26.4657 8.77517 26.3371C8.81272 26.2091 8.99308 26.1488 9.1753 26.2067C9.35566 26.2621 9.47414 26.41 9.43659 26.5394Z" fill="white"/>
<path fill-rule="evenodd" clip-rule="evenodd" d="M10.7436 26.6368C10.7481 26.7707 10.5947 26.8818 10.4048 26.884C10.2138 26.8885 10.0594 26.7801 10.0573 26.6483C10.0573 26.513 10.2072 26.403 10.3982 26.3998C10.5881 26.396 10.7436 26.5036 10.7436 26.6368Z" fill="white"/>
<path fill-rule="evenodd" clip-rule="evenodd" d="M11.9598 26.4262C11.9826 26.5569 11.8506 26.6911 11.662 26.7266C11.4767 26.7613 11.305 26.6806 11.2815 26.551C11.2585 26.417 11.3928 26.2828 11.5779 26.2481C11.7668 26.2147 11.9358 26.2933 11.9598 26.4262Z" fill="white"/>
</g>
</g>
</svg>
