<svg width="32" height="32" viewBox="0 0 32 32" fill="none" xmlns="http://www.w3.org/2000/svg">
<g id="whatsapp (1) 1" clip-path="url(#clip0_13_40)">
<g id="Layer 2">
<g id="08.whatsapp">
<path id="Vector" d="M20.4211 11.5789L20.3895 11.5474C19.343 10.5065 17.9601 9.87216 16.4885 9.75804C15.017 9.64393 13.5528 10.0575 12.3584 10.9246C11.164 11.7917 10.3173 13.0558 9.97 14.4904C9.62273 15.9249 9.79756 17.4363 10.4632 18.7537L10.7368 19.2926L10.2253 21.7726V21.8042L12.6821 21.2211L13.2421 21.499C14.4076 22.0775 15.7253 22.2757 17.0094 22.0657C18.2936 21.8557 19.4795 21.2481 20.4 20.3284C21.5558 19.1671 22.2063 17.5964 22.2103 15.958C22.2142 14.3196 21.5712 12.7458 20.4211 11.5789ZM20.1726 18.5263C19.8716 19 19.3937 19.5789 18.7979 19.7242C17.7453 19.979 16.1432 19.7242 14.1368 17.8695L14.1116 17.8463C12.3663 16.2168 11.9032 14.859 12.0063 13.7832C12.0674 13.1726 12.5768 12.6211 13.0063 12.2589C13.0744 12.2009 13.1552 12.1598 13.2422 12.1387C13.3292 12.1177 13.4198 12.1174 13.5069 12.1379C13.594 12.1584 13.6751 12.1991 13.7435 12.2567C13.812 12.3143 13.866 12.3872 13.9011 12.4695L14.5474 13.9432C14.5896 14.0372 14.6054 14.141 14.5932 14.2433C14.5809 14.3457 14.5411 14.4428 14.4779 14.5242L14.1495 14.9453C14.0812 15.0327 14.0406 15.1384 14.0327 15.2491C14.0248 15.3597 14.0501 15.4701 14.1053 15.5663C14.4174 16.0254 14.7906 16.4397 15.2147 16.7979C15.6701 17.2385 16.1879 17.6095 16.7516 17.8989C16.8542 17.9406 16.967 17.9507 17.0754 17.9278C17.1838 17.9049 17.2829 17.8501 17.36 17.7705L17.7368 17.3895C17.8072 17.3089 17.8987 17.2496 18.001 17.2183C18.1034 17.187 18.2124 17.1851 18.3158 17.2126L19.8526 17.6547C19.9381 17.6797 20.0165 17.7243 20.0818 17.7848C20.1471 17.8453 20.1975 17.9201 20.2289 18.0034C20.2603 18.0867 20.272 18.1761 20.263 18.2647C20.2539 18.3532 20.2244 18.4385 20.1768 18.5137L20.1726 18.5263Z" fill="white"/>
<path id="Vector_2" d="M16 0C12.8355 0 9.74207 0.938384 7.11088 2.69649C4.4797 4.45459 2.42894 6.95345 1.21793 9.87707C0.00693251 12.8007 -0.309921 16.0177 0.307443 19.1214C0.924806 22.2251 2.44866 25.0761 4.6863 27.3137C6.92394 29.5513 9.77487 31.0752 12.8786 31.6926C15.9823 32.3099 19.1993 31.9931 22.1229 30.7821C25.0466 29.5711 27.5454 27.5203 29.3035 24.8891C31.0616 22.2579 32 19.1645 32 16C32 11.7565 30.3143 7.68687 27.3137 4.68629C24.3131 1.68571 20.2435 0 16 0ZM23.9305 16.1874C23.8873 17.5162 23.5111 18.8128 22.8363 19.9584C22.1616 21.104 21.2099 22.0617 20.0687 22.7438C18.9275 23.4259 17.6333 23.8105 16.3048 23.8622C14.9763 23.914 13.6561 23.6312 12.4653 23.04L8.46527 23.9916C8.40479 24.0055 8.34155 24.0008 8.28373 23.9783C8.22592 23.9558 8.17621 23.9164 8.14106 23.8653C8.11703 23.8311 8.10033 23.7923 8.092 23.7514C8.08366 23.7104 8.08388 23.6682 8.09264 23.6274L8.93474 19.5389C8.38429 18.4604 8.08793 17.2702 8.06834 16.0594C8.04876 14.8486 8.30647 13.6495 8.82176 12.5537C9.33704 11.4578 10.0962 10.4945 11.0412 9.73728C11.9862 8.98009 13.0919 8.44917 14.2737 8.18515C15.4554 7.92113 16.682 7.93102 17.8593 8.21406C19.0367 8.49711 20.1337 9.0458 21.0663 9.81813C21.999 10.5905 22.7425 11.566 23.2401 12.6699C23.7376 13.7739 23.976 14.9771 23.9368 16.1874H23.9305Z" fill="white"/>
</g>
</g>
</g>
<defs>
<clipPath id="clip0_13_40">
<rect width="32" height="32" fill="white"/>
</clipPath>
</defs>
</svg>
